<?xml version="1.0" encoding="UTF-8" standalone="no"?>
<!-- Created with Inkscape (http://www.inkscape.org/) -->

<svg
   width="65mm"
   height="25mm"
   viewBox="0 0 65 25"
   version="1.1"
   id="svg5"
   xmlns="http://www.w3.org/2000/svg"
   xmlns:svg="http://www.w3.org/2000/svg">
  <defs
     id="defs2" />
  <g
     id="layer1">
    <g
       id="rect13474"
       transform="matrix(1,0,-0.21654662,0.97627228,0,0)" />
    <g
       id="rect15894"
       transform="matrix(-1,0,-0.37640508,0.92645519,0,0)" />
    <path
       id="path27227"
       style="font-size:5.83488px;fill:#ffffff;stroke-width:0.0852564"
       d="m 54.36776,18.031259 h 2.10309 v 0.283076 h -0.88253 v 2.202998 h -0.33803 v -2.202998 h -0.88253 z m -1.57352,0 h 0.33636 v 2.486074 h -0.33636 z m -4.81644,0 h 1.5719 v 0.283076 h -1.23554 v 0.736 h 1.18392 v 0.283076 h -1.18392 v 0.900846 h 1.26551 v 0.283076 H 47.9778 Z m -3.3736,0.276419 v 1.933242 h 0.40629 q 0.51454,0 0.75265,-0.233122 0.23979,-0.233122 0.23979,-0.736001 0,-0.499546 -0.23979,-0.731003 -0.23811,-0.233116 -0.75265,-0.233116 z m -0.33636,-0.276419 h 0.69104 q 0.72267,0 1.0607,0.301392 0.33802,0.299727 0.33802,0.939146 0,0.642751 -0.33969,0.944143 -0.33969,0.301393 -1.05903,0.301393 H 44.26784 Z M 41.364,18.259384 q -0.36633,0 -0.5828,0.273087 -0.2148,0.273088 -0.2148,0.744324 0,0.469575 0.2148,0.742657 0.21647,0.273087 0.5828,0.273087 0.36634,0 0.57948,-0.273087 0.2148,-0.273082 0.2148,-0.742657 0,-0.471236 -0.2148,-0.744324 -0.21314,-0.273087 -0.57948,-0.273087 z m 0,-0.273082 q 0.52287,0 0.83591,0.351347 0.31305,0.34968 0.31305,0.939146 0,0.587799 -0.31305,0.939145 -0.31304,0.349681 -0.83591,0.349681 -0.52452,0 -0.83923,-0.349681 -0.31305,-0.34968 -0.31305,-0.939145 0,-0.589466 0.31305,-0.939146 0.31471,-0.351347 0.83923,-0.351347 z m -2.90324,0.236448 v 0.354678 q -0.16984,-0.158189 -0.363,-0.236448 -0.19149,-0.07827 -0.40797,-0.07827 -0.42627,0 -0.65274,0.261428 -0.22646,0.259768 -0.22646,0.752652 0,0.491218 0.22646,0.752651 0.22647,0.259762 0.65274,0.259762 0.21648,0 0.40797,-0.07827 0.19316,-0.07826 0.363,-0.236447 v 0.351346 q -0.1765,0.119889 -0.37466,0.179837 -0.19649,0.05994 -0.41628,0.05994 -0.56449,0 -0.88921,-0.344683 -0.3247,-0.346355 -0.3247,-0.944143 0,-0.599454 0.3247,-0.944144 0.32472,-0.346349 0.88921,-0.346349 0.22313,0 0.41961,0.05994 0.19816,0.05827 0.37133,0.176506 z m -7.10621,-0.191491 h 2.10309 v 0.283076 h -0.88253 v 2.202998 h -0.33803 v -2.202998 h -0.88253 z m -1.41371,0.0816 v 0.328032 q -0.19149,-0.09158 -0.36134,-0.136541 -0.16985,-0.04494 -0.32804,-0.04494 -0.27475,0 -0.42461,0.106569 -0.1482,0.10657 -0.1482,0.303059 0,0.164852 0.0982,0.249773 0.0999,0.08326 0.37632,0.134881 l 0.20315,0.04161 q 0.37632,0.0716 0.55449,0.253105 0.17984,0.179837 0.17984,0.482896 0,0.361334 -0.24311,0.547834 -0.24145,0.186495 -0.70936,0.186495 -0.1765,0 -0.37632,-0.03998 -0.19815,-0.03998 -0.41129,-0.11823 v -0.346349 q 0.20481,0.114893 0.4013,0.173175 0.19649,0.05827 0.38631,0.05827 0.28808,0 0.4446,-0.113233 0.15652,-0.113226 0.15652,-0.323041 0,-0.183162 -0.11323,-0.286407 -0.11156,-0.103238 -0.368,-0.154857 L 29.05326,19.375 q -0.37632,-0.07493 -0.5445,-0.234782 -0.16818,-0.159855 -0.16818,-0.444597 0,-0.329703 0.23145,-0.519529 0.23312,-0.189826 0.64109,-0.189826 0.17484,0 0.35634,0.03162 0.1815,0.03162 0.37133,0.09492 z m -5.10869,-0.0816 h 0.33802 v 1.510294 q 0,0.39964 0.14487,0.576146 0.14487,0.17484 0.46957,0.17484 0.32304,0 0.46791,-0.17484 0.14487,-0.176506 0.14487,-0.576146 v -1.510294 h 0.33803 v 1.551925 q 0,0.486221 -0.24145,0.734329 -0.23978,0.248108 -0.70936,0.248108 -0.47123,0 -0.71268,-0.248108 -0.23978,-0.248108 -0.23978,-0.734329 z m -2.01351,0 H 23.155 v 2.3129 q 0,0.449593 -0.17151,0.652738 -0.16985,0.203152 -0.54784,0.203152 h -0.12822 v -0.283076 h 0.10491 q 0.22313,0 0.31471,-0.124887 0.0916,-0.124887 0.0916,-0.447927 z M 55.42976,3.7999933 v 1.058602 3.919397 1.0586024 3.9613783 1.058602 H 61.0704 V 13.797973 H 56.48836 V 9.8365947 h 4.11843 V 8.7779923 h -4.11843 v -3.919397 h 4.58204 v -1.058602 h -4.58204 z m -5.85931,-3e-6 H 48.51177 L 44.3685,14.856572 h 0.70983 z m -9.85845,3e-6 -0.7898,11.0565817 h 1.05861 l 0.66053,-9.2471417 3.56753,8.7811157 -0.003,0.0069 0.16581,0.459081 h 0.70644 v 0 l 0.18906,-0.465725 3.56754,-8.7808127 0.66084,9.2465397 h 1.0586 L 49.76406,3.7999513 h -0.1939 -1.0586 L 44.73804,13.087867 40.96452,3.7999513 h -0.1942 -0.8644 z m -9.6443,0 -3.93692,11.0565817 h 1.05861 l 0.984,-2.76354 h 5.01031 l 0.98401,2.76354 H 35.2263 L 31.28939,3.7999933 H 31.1263 30.23079 Z m 0.6107,1.257336 2.12838,5.9767997 H 28.55032 Z M 18.4276,3.7999933 V 14.856575 h 1.0586 4.03779 V 13.797973 H 19.4862 V 3.7999933 Z M 13.50721,15.902189 c 0.62087,0.523802 1.22305,1.022143 1.75489,1.462825 l -1.75451,1.49767 -3.8e-4,-0.434345 1.24235,-1.0599 c -0.11576,-0.09814 -1.24235,-1.03166 -1.24235,-1.03166 z m -2.047806,0 c -0.62087,0.523802 -1.223051,1.022143 -1.7548902,1.462825 l 1.7545112,1.49767 3.79e-4,-0.434345 -1.242349,-1.0599 c 0.115757,-0.09814 1.242349,-1.03166 1.242349,-1.03166 z m 1.369666,-0.827483 h 0.29791 l -1.004343,4.527946 h -0.297908 z m 0,0 h 0.29791 l -1.004343,4.527946 H 11.824729 Z M 7.6041432,4.7135883 3.9296002,7.8493353 V 19.22341 H 9.5024848 V 18.903788 H 4.2503662 V 7.9977323 l 3.471353,-2.963378 H 13.36652 v 9.3159207 h 0.32077 V 4.7135883 Z m -0.133557,0.936044 v 2.120938 h -2.599235 v 0.271681 h 2.870916 v -2.392619 z" />
  </g>
</svg>
